<?xml version="1.0" encoding="UTF-8" standalone="no"?>
<!-- Generator: Adobe Illustrator 26.5.0, SVG Export Plug-In . SVG Version: 6.00 Build 0)  -->

<svg
   version="1.1"
   id="Layer_1"
   x="0px"
   y="0px"
   viewBox="0 0 612 792"
   style="enable-background:new 0 0 612 792;"
   xml:space="preserve"
   sodipodi:docname="logo.svg"
   inkscape:version="1.1.2 (0a00cf5339, 2022-02-04)"
   xmlns:inkscape="http://www.inkscape.org/namespaces/inkscape"
   xmlns:sodipodi="http://sodipodi.sourceforge.net/DTD/sodipodi-0.dtd"
   xmlns="http://www.w3.org/2000/svg"
   xmlns:svg="http://www.w3.org/2000/svg"><defs
   id="defs1564"><clipPath
     clipPathUnits="userSpaceOnUse"
     id="clipPath34176"><path
       d="M 0,792 H 612 V 0 H 0 Z"
       id="path34174" /></clipPath><clipPath
     clipPathUnits="userSpaceOnUse"
     id="clipPath34210"><path
       d="m 459.52,23.96 h 27.16 v 27.16 h -27.16 z"
       id="path34208" /></clipPath><clipPath
     clipPathUnits="userSpaceOnUse"
     id="clipPath34218"><path
       d="M -32768,32767 H 32767 V -32768 H -32768 Z"
       id="path34216" /></clipPath><clipPath
     clipPathUnits="userSpaceOnUse"
     id="clipPath34236"><path
       d="M 0,720.36 H 612 V 792 H 0 Z"
       id="path34234" /></clipPath><clipPath
     clipPathUnits="userSpaceOnUse"
     id="clipPath56868"><path
       d="M 0,0 H 612 V 792 H 0 Z"
       id="path56866" /></clipPath><clipPath
     clipPathUnits="userSpaceOnUse"
     id="clipPath56880"><path
       d="M 36.78,402.988 H 271.484 V 674 H 36.78 Z"
       id="path56878" /></clipPath><linearGradient
     x1="0"
     y1="0"
     x2="1"
     y2="0"
     gradientUnits="userSpaceOnUse"
     gradientTransform="matrix(234.70403,0,0,-234.70403,36.780701,538.49369)"
     spreadMethod="pad"
     id="linearGradient59858"><stop
       style="stop-opacity:1;stop-color:#151e27"
       offset="0"
       id="stop59854" /><stop
       style="stop-opacity:1;stop-color:#2f68a6"
       offset="1"
       id="stop59856" /></linearGradient><clipPath
     clipPathUnits="userSpaceOnUse"
     id="clipPath59868"><path
       d="M 36.78,402.988 H 271.484 V 674 H 36.78 Z"
       id="path59866" /></clipPath><linearGradient
     x1="0"
     y1="0"
     x2="1"
     y2="0"
     gradientUnits="userSpaceOnUse"
     gradientTransform="matrix(0,-61.776633,-61.776633,0,117.42864,609.96105)"
     spreadMethod="pad"
     id="linearGradient59892"><stop
       style="stop-opacity:1;stop-color:#d4e623"
       offset="0"
       id="stop59884" /><stop
       style="stop-opacity:1;stop-color:#d4e623"
       offset="0.00000129"
       id="stop59886" /><stop
       style="stop-opacity:1;stop-color:#a9d12f"
       offset="0.999999"
       id="stop59888" /><stop
       style="stop-opacity:1;stop-color:#a9d12f"
       offset="1"
       id="stop59890" /></linearGradient><linearGradient
     x1="0"
     y1="0"
     x2="1"
     y2="0"
     gradientUnits="userSpaceOnUse"
     gradientTransform="matrix(0,-61.776633,-61.776633,0,117.42864,609.96105)"
     spreadMethod="pad"
     id="linearGradient59916"><stop
       style="stop-opacity:1;stop-color:#c4e124"
       offset="0"
       id="stop59908" /><stop
       style="stop-opacity:1;stop-color:#c4e124"
       offset="0.00000129"
       id="stop59910" /><stop
       style="stop-opacity:1;stop-color:#99cd30"
       offset="0.999999"
       id="stop59912" /><stop
       style="stop-opacity:1;stop-color:#99cd30"
       offset="1"
       id="stop59914" /></linearGradient><clipPath
     clipPathUnits="userSpaceOnUse"
     id="clipPath59926"><path
       d="M 36.78,402.988 H 271.484 V 674 H 36.78 Z"
       id="path59924" /></clipPath><linearGradient
     x1="0"
     y1="0"
     x2="1"
     y2="0"
     gradientUnits="userSpaceOnUse"
     gradientTransform="matrix(0,-61.776633,-61.776633,0,117.42864,609.96105)"
     spreadMethod="pad"
     id="linearGradient59982"><stop
       style="stop-opacity:1;stop-color:#eff5a7"
       offset="0"
       id="stop59974" /><stop
       style="stop-opacity:1;stop-color:#eff5a7"
       offset="0.00000129"
       id="stop59976" /><stop
       style="stop-opacity:1;stop-color:#deeda7"
       offset="0.999999"
       id="stop59978" /><stop
       style="stop-opacity:1;stop-color:#deeda7"
       offset="1"
       id="stop59980" /></linearGradient><clipPath
     clipPathUnits="userSpaceOnUse"
     id="clipPath59992"><path
       d="M 36.78,402.988 H 271.484 V 674 H 36.78 Z"
       id="path59990" /></clipPath><linearGradient
     x1="0"
     y1="0"
     x2="1"
     y2="0"
     gradientUnits="userSpaceOnUse"
     gradientTransform="matrix(0,-61.776633,-61.776633,0,117.42864,609.96105)"
     spreadMethod="pad"
     id="linearGradient60066"><stop
       style="stop-opacity:1;stop-color:#ecf498"
       offset="0"
       id="stop60058" /><stop
       style="stop-opacity:1;stop-color:#ecf498"
       offset="0.00000129"
       id="stop60060" /><stop
       style="stop-opacity:1;stop-color:#d8e999"
       offset="0.999999"
       id="stop60062" /><stop
       style="stop-opacity:1;stop-color:#d8e999"
       offset="1"
       id="stop60064" /></linearGradient><clipPath
     clipPathUnits="userSpaceOnUse"
     id="clipPath60076"><path
       d="m 124.772,549.341 h 0.005 z m -0.002,0 h 0.002 z"
       id="path60074" /></clipPath><linearGradient
     x1="0"
     y1="0"
     x2="1"
     y2="0"
     gradientUnits="userSpaceOnUse"
     gradientTransform="matrix(0,-61.776633,-61.776633,0,117.42864,609.96105)"
     spreadMethod="pad"
     id="linearGradient60098"><stop
       style="stop-opacity:1;stop-color:#e4f198"
       offset="0"
       id="stop60090" /><stop
       style="stop-opacity:1;stop-color:#e4f198"
       offset="0.00000129"
       id="stop60092" /><stop
       style="stop-opacity:1;stop-color:#d1e798"
       offset="0.999999"
       id="stop60094" /><stop
       style="stop-opacity:1;stop-color:#d1e798"
       offset="1"
       id="stop60096" /></linearGradient><clipPath
     clipPathUnits="userSpaceOnUse"
     id="clipPath60156"><path
       d="M 36.78,402.988 H 271.484 V 674 H 36.78 Z"
       id="path60154" /></clipPath><clipPath
     clipPathUnits="userSpaceOnUse"
     id="clipPath60288"><path
       d="M 36.78,402.988 H 271.484 V 674 H 36.78 Z"
       id="path60286" /></clipPath><clipPath
     clipPathUnits="userSpaceOnUse"
     id="clipPath60410"><path
       d="M 36.78,402.988 H 271.484 V 674 H 36.78 Z"
       id="path60408" /></clipPath><clipPath
     clipPathUnits="userSpaceOnUse"
     id="clipPath60498"><path
       d="M 36.78,402.988 H 271.484 V 674 H 36.78 Z"
       id="path60496" /></clipPath><linearGradient
     x1="0"
     y1="0"
     x2="1"
     y2="0"
     gradientUnits="userSpaceOnUse"
     gradientTransform="matrix(0,-61.776633,-61.776633,0,117.42864,609.96105)"
     spreadMethod="pad"
     id="linearGradient60558"><stop
       style="stop-opacity:1;stop-color:#f7fad7"
       offset="0"
       id="stop60550" /><stop
       style="stop-opacity:1;stop-color:#f7fad7"
       offset="0.00000129"
       id="stop60552" /><stop
       style="stop-opacity:1;stop-color:#f0f6d6"
       offset="0.999999"
       id="stop60554" /><stop
       style="stop-opacity:1;stop-color:#f0f6d6"
       offset="1"
       id="stop60556" /></linearGradient><linearGradient
     x1="0"
     y1="0"
     x2="1"
     y2="0"
     gradientUnits="userSpaceOnUse"
     gradientTransform="matrix(0,-61.776633,-61.776633,0,117.42864,609.96105)"
     spreadMethod="pad"
     id="linearGradient60582"><stop
       style="stop-opacity:1;stop-color:#f5fad6"
       offset="0"
       id="stop60574" /><stop
       style="stop-opacity:1;stop-color:#f5fad6"
       offset="0.00000129"
       id="stop60576" /><stop
       style="stop-opacity:1;stop-color:#edf5d5"
       offset="0.999999"
       id="stop60578" /><stop
       style="stop-opacity:1;stop-color:#edf5d5"
       offset="1"
       id="stop60580" /></linearGradient><clipPath
     clipPathUnits="userSpaceOnUse"
     id="clipPath60592"><path
       d="M 36.78,402.988 H 271.484 V 674 H 36.78 Z"
       id="path60590" /></clipPath><clipPath
     clipPathUnits="userSpaceOnUse"
     id="clipPath60702"><path
       d="M 36.78,402.988 H 271.484 V 674 H 36.78 Z"
       id="path60700" /></clipPath><clipPath
     clipPathUnits="userSpaceOnUse"
     id="clipPath60802"><path
       d="M 36.78,402.988 H 271.484 V 674 H 36.78 Z"
       id="path60800" /></clipPath><clipPath
     clipPathUnits="userSpaceOnUse"
     id="clipPath60904"><path
       d="M 36.78,402.988 H 271.484 V 674 H 36.78 Z"
       id="path60902" /></clipPath><clipPath
     clipPathUnits="userSpaceOnUse"
     id="clipPath61258"><path
       d="M 350.6,319.644 H 530.649 V 369.2 H 350.6 Z"
       id="path61256" /></clipPath></defs><sodipodi:namedview
   id="namedview1562"
   pagecolor="#ffffff"
   bordercolor="#666666"
   borderopacity="1.0"
   inkscape:pageshadow="2"
   inkscape:pageopacity="0.0"
   inkscape:pagecheckerboard="0"
   showgrid="false"
   inkscape:zoom="0.5749127"
   inkscape:cx="-2.6090918"
   inkscape:cy="251.34251"
   inkscape:window-width="1920"
   inkscape:window-height="1016"
   inkscape:window-x="0"
   inkscape:window-y="0"
   inkscape:window-maximized="1"
   inkscape:current-layer="Layer_1" />
<style
   type="text/css"
   id="style2">
	.st0{fill:#18BED2;}
	.st1{fill:none;}
	.st2{font-family:'ClashDisplay-Medium';}
	.st3{font-size:89px;}
	.st4{fill:url(#SVGID_1_);}
	.st5{fill-rule:evenodd;clip-rule:evenodd;fill:#92ABA6;}
	.st6{opacity:0.91;fill-rule:evenodd;clip-rule:evenodd;fill:url(#SVGID_00000044169153931771760620000012331813040940204451_);}
	.st7{fill:#51B96F;stroke:#FFFFFF;stroke-width:0.7451;stroke-miterlimit:3.8134;}
	.st8{fill-rule:evenodd;clip-rule:evenodd;fill:#86A8D7;}
	.st9{fill:#628BC8;stroke:#FFFFFF;stroke-width:0.7451;stroke-miterlimit:3.8134;}
	.st10{fill-rule:evenodd;clip-rule:evenodd;fill:#FFFFFF;fill-opacity:0.6145;}
	.st11{fill-rule:evenodd;clip-rule:evenodd;fill:#FFFFFF;fill-opacity:0.5502;}
	.st12{fill-rule:evenodd;clip-rule:evenodd;}
</style>

<rect
   x="159.3"
   y="408.8"
   class="st1"
   width="284.4"
   height="66.5"
   id="rect1484" />
<text
   class="st2 st3"
   id="text1486"
   style="font-style:normal;font-variant:normal;font-weight:normal;font-stretch:normal;font-size:48.1682px;font-family:'Clash Display';-inkscape-font-specification:'Clash Display';stroke-width:0.0845887"
   x="157.02148"
   y="470.11511"><tspan
     style="font-style:normal;font-variant:normal;font-weight:500;font-stretch:normal;font-size:48.1682px;font-family:'Clash Display';-inkscape-font-specification:'Clash Display Medium';stroke-width:0.0845887"
     id="tspan5209">numberizeR</tspan></text>
<linearGradient
   id="SVGID_1_"
   gradientUnits="userSpaceOnUse"
   x1="133.0586"
   y1="392.0741"
   x2="470.0482"
   y2="392.0741">
	<stop
   offset="0"
   style="stop-color:#0B1E2C"
   id="stop1488" />
	<stop
   offset="1"
   style="stop-color:#0D6C9F"
   id="stop1490" />
</linearGradient>
<path
   class="st4"
   d="M301.6,203.3L465,297.7v188.8l-163.5,94.4l-163.5-94.4V297.7L301.6,203.3 M301.6,197.5l-168.5,97.3v194.6  l168.5,97.3L470,489.4V294.8L301.6,197.5L301.6,197.5z"
   id="path1493" />

<g
   id="g1559">
	<g
   id="g1533">
		<path
   d="M248.7,515.7v-17.1h14.4v3.4h-10.6v3.3h10.2v3.4h-10.2v3.4h10.6v3.4H248.7z"
   id="path1517" />
		<path
   d="M264.9,520.1V503h3.5v3.5h0.3c0.5-2.4,2.1-3.7,5.1-3.7c3.9,0,6.1,2.6,6.1,6.6s-2.1,6.6-6,6.6c-3,0-4.6-1.5-5-3.7h-0.2v7.8    H264.9z M272.4,512.5c2.4,0,3.6-0.8,3.6-3.1c0-2.3-1.1-3.1-3.6-3.1c-2.5,0-3.7,0.8-3.7,3.1v0.2C268.7,511.7,270,512.5,272.4,512.5    z"
   id="path1519" />
		<path
   d="M281.4,501.7v-3h3.8v3H281.4z M281.4,515.7V503h3.8v12.8H281.4z"
   id="path1521" />
		<path
   d="M291.6,515.7l-5.8-12.8h4.3l3.8,9h0.3l3.8-9h4.2l-5.8,12.8H291.6z"
   id="path1523" />
		<path
   d="M301.7,509.4c0-4.1,2.9-6.6,7.1-6.6c4.2,0,7,2.2,7,6.2c0,0.5-0.1,0.8-0.1,1.2h-10.4c0.1,2,1,2.8,3.5,2.8    c2.3,0,3.1-0.6,3.1-1.7V511h3.8v0.3c0,2.8-2.7,4.7-6.8,4.7C304.6,516,301.7,513.9,301.7,509.4z M305.3,508.1h6.8    c-0.1-1.7-1.1-2.4-3.4-2.4C306.4,505.7,305.4,506.5,305.3,508.1z"
   id="path1525" />
		<path
   d="M317.2,515.7V503h3.5v3.4h0.2c0.4-2.1,1.7-3.6,4.3-3.6c2.9,0,4,2,4,4.5v2.1h-3.8V508c0-1.4-0.6-2-2.1-2    c-1.7,0-2.3,0.8-2.3,2.4v7.4H317.2z"
   id="path1527" />
		<path
   d="M330.1,511.4L330.1,511.4l3.8-0.1v0.2c0,1.1,0.7,1.5,2.9,1.5c2,0,2.5-0.3,2.5-1.1c0-0.7-0.4-0.9-1.9-1.1l-3.6-0.4    c-2.5-0.3-4-1.4-4-3.6c0-2.2,1.9-4,6.3-4c4.2,0,6.5,1.6,6.5,4.7v0.1h-3.8v-0.2c0-1-0.5-1.6-2.9-1.6c-1.9,0-2.4,0.3-2.4,1.1    c0,0.7,0.4,0.9,2,1.1l2.7,0.3c3.4,0.4,4.7,1.5,4.7,3.6c0,2.4-2.4,4-6.3,4C332.5,516,330.1,514.3,330.1,511.4z"
   id="path1529" />
		<path
   d="M343.9,509.4c0-4.1,2.9-6.6,7.1-6.6c4.2,0,7,2.2,7,6.2c0,0.5-0.1,0.8-0.1,1.2h-10.4c0.1,2,1,2.8,3.5,2.8    c2.3,0,3.1-0.6,3.1-1.7V511h3.8v0.3c0,2.8-2.7,4.7-6.8,4.7C346.8,516,343.9,513.9,343.9,509.4z M347.5,508.1h6.8    c-0.1-1.7-1.1-2.4-3.4-2.4C348.6,505.7,347.7,506.5,347.5,508.1z"
   id="path1531" />
	</g>
	<g
   id="g1557">
		<path
   class="st12"
   d="M336,528.3c-1.1,0-2,0.9-2,2c0,1.1,0.8,2,2,2c1.1,0,2-0.8,2-2C337.9,529.2,337.1,528.3,336,528.3     M343.3,523.1c-3,0-5.2,1.9-5.2,4.6c0,2.7,2.1,4.6,5.2,4.6s5.2-1.9,5.2-4.6C348.5,524.9,346.4,523.1,343.3,523.1 M343.3,532    c-1,0-1.3-0.9-1.3-4.3c0-3.6,0.3-4.3,1.3-4.3c1,0,1.3,0.8,1.3,4.3C344.6,531.1,344.3,532,343.3,532 M355.3,522.9    c-1.1,0-2.3,0.9-2.5,2.2l-3.5-2.2l0,9.3h3.6l0-6.6c0-1.4,1.6-1.4,2.4-1.4V522.9z M361.5,529.7l-5.3,0l1.5-1    c0.6,0.2,0.9,0.2,1.7,0.2c2.9,0,4.3-1,4.3-2.9c0-1.1-0.6-2-1.7-2.6l2.2,0v-1.3l-2.6,1.2c-0.6-0.2-1.3-0.3-2.1-0.3    c-2.9,0-4.2,1.2-4.2,2.9c0,1.2,0.7,2.1,1.8,2.6l-1.9,1.2l0.9,3.1h8.4c0-0.1,0-0.1,0.1-0.2v-1.1    C364.2,530.4,363.3,529.7,361.5,529.7 M359.4,523.2c1,0,1.2,1.1,1.2,2.8c0,1.5-0.2,2.7-1.2,2.7c-1,0-1.2-1.2-1.2-2.7    C358.2,524.3,358.4,523.2,359.4,523.2 M314.2,523c-0.9,0-2.3,0.2-3.5,0.6v1.3c0.8-0.8,2-1.7,3-1.7c1,0,1.1,0.9,1.1,1.6v1.9    c-3.6,0-5.2,1.2-5.2,3c0,1.6,1.1,2.3,2.6,2.3c1.6,0,2.6-1,2.7-2l3.4,2.1v-5.9C318.5,523.7,317.1,523,314.2,523 M314.9,529.9    c0,0.4-0.3,0.9-0.9,0.9c-0.7,0-1-0.6-1-1.6c0-1,0.5-2,1.9-2.3V529.9z M324.9,522.7h-1.4l0-2.4l-3.5,2.4h-1.3v0.7h1.3v8.8l3.5,0    l0-8.8h1.4V522.7z M305.6,519.4v5.3c-0.3-1.1-1.3-1.8-2.6-1.8c-2.3,0-3.8,1.9-3.8,4.7c0,2.7,1.3,4.5,3.7,4.5c1.6,0,2.5-0.8,2.7-2    l3.6,2.1l0-10.6L305.6,519.4z M305.6,529.5c0,0.8-0.4,1.4-1.1,1.4c-1.3,0-1.4-1.5-1.4-3.4c0-2.1,0.2-3.3,1.4-3.3    c0.7,0,1.1,0.6,1.1,1.4V529.5z M328.8,523c-0.9,0-2.3,0.2-3.5,0.6v1.3c0.8-0.8,2-1.7,3-1.7c1,0,1.1,0.9,1.1,1.6v1.9    c-3.6,0-5.2,1.2-5.2,3c0,1.6,1.1,2.3,2.6,2.3c1.6,0,2.6-1,2.7-2l3.4,2.1v-5.9C333.1,523.7,331.6,523,328.8,523 M329.5,529.9    c0,0.4-0.3,0.9-0.9,0.9c-0.7,0-1-0.6-1-1.6c0-1,0.5-2,1.9-2.3V529.9z"
   id="path1535" />
		<g
   id="g1555">
			<path
   d="M240.4,532.8v-6.3h0.4v1.3h0.1c0.2-0.8,1-1.4,2.1-1.4c1.5,0,2.3,1,2.3,2.4c0,1.4-0.8,2.4-2.3,2.4c-1,0-1.8-0.6-2-1.5v3     H240.4z M242.8,530.9c1.2,0,2-0.5,2-2c0-1.5-0.8-2-1.9-2c-1.2,0-2,0.8-2,2v0.1C240.8,530.2,241.6,530.9,242.8,530.9z"
   id="path1537" />
			<path
   d="M245.8,528.9c0-1.4,1-2.4,2.5-2.4c1.5,0,2.5,1,2.5,2.4c0,1.4-1,2.4-2.5,2.4C246.8,531.3,245.8,530.3,245.8,528.9z      M250.4,528.9c0-1.2-0.7-2-2.1-2c-1.4,0-2.1,0.8-2.1,2c0,1.2,0.7,2,2.1,2C249.7,530.9,250.4,530.1,250.4,528.9z"
   id="path1539" />
			<path
   d="M252.9,531.2l-1.6-4.6h0.4l1.1,3.4l0.2,0.8h0l0.3-0.9l1.4-3.4h0.5l1.4,3.4l0.3,0.8h0l0.2-0.8l1.1-3.4h0.4l-1.6,4.6h-0.5     l-1.4-3.3l-0.4-0.9h0l-0.4,0.9l-1.4,3.3H252.9z"
   id="path1541" />
			<path
   d="M259.4,528.9c0-1.4,0.9-2.4,2.4-2.4c1.3,0,2.3,0.8,2.3,2.1c0,0.2,0,0.3,0,0.4h-4.2c0,1.2,0.6,1.9,2,1.9     c1.2,0,1.8-0.5,1.8-1.2v-0.1h0.4v0.1c0,1-1,1.6-2.2,1.6C260.4,531.3,259.4,530.3,259.4,528.9z M259.8,528.7h3.9     c0-0.1,0-0.1,0-0.2c0-1.1-0.7-1.7-1.9-1.7C260.5,526.8,259.9,527.6,259.8,528.7z"
   id="path1543" />
			<path
   d="M265.1,531.2v-4.6h0.4v1.3h0c0.1-0.7,0.7-1.4,1.7-1.4c1.1,0,1.6,0.8,1.6,1.7v0.4h-0.4v-0.3c0-0.9-0.4-1.3-1.3-1.3     c-1.1,0-1.5,0.7-1.5,1.9v2.5H265.1z"
   id="path1545" />
			<path
   d="M269.3,528.9c0-1.4,0.9-2.4,2.4-2.4c1.3,0,2.3,0.8,2.3,2.1c0,0.2,0,0.3,0,0.4h-4.2c0,1.2,0.6,1.9,2,1.9     c1.2,0,1.8-0.5,1.8-1.2v-0.1h0.4v0.1c0,1-1,1.6-2.2,1.6C270.2,531.3,269.3,530.3,269.3,528.9z M269.7,528.7h3.9     c0-0.1,0-0.1,0-0.2c0-1.1-0.7-1.7-1.9-1.7C270.4,526.8,269.8,527.6,269.7,528.7z"
   id="path1547" />
			<path
   d="M274.6,528.9c0-1.4,0.8-2.4,2.3-2.4c1.1,0,1.8,0.6,2,1.4h0v-3h0.4v6.3H279v-1.4h0c-0.2,0.9-1,1.5-2.1,1.5     C275.4,531.3,274.6,530.3,274.6,528.9z M277,530.9c1.2,0,2-0.7,2-1.9v-0.1c0-1.3-0.8-2-2-2c-1.1,0-1.9,0.5-1.9,2     C275,530.4,275.8,530.9,277,530.9z"
   id="path1549" />
			<path
   d="M284.3,531.2v-6.3h0.4v3h0c0.2-0.8,0.9-1.4,2.1-1.4c1.5,0,2.3,1,2.3,2.4c0,1.4-0.8,2.4-2.3,2.4c-1,0-1.8-0.6-2-1.5h0v1.4     H284.3z M286.7,530.9c1.2,0,2-0.5,2-2c0-1.5-0.8-2-1.9-2c-1.3,0-2,0.8-2,2v0.1C284.8,530.2,285.5,530.9,286.7,530.9z"
   id="path1551" />
			<path
   d="M290,532.8v-0.4h0.6c0.5,0,0.7-0.2,0.9-0.6l0.3-0.7l-2.3-4.6h0.5l1.5,3l0.6,1.2h0l0.5-1.2l1.4-3h0.4l-2.6,5.4     c-0.3,0.6-0.7,0.9-1.3,0.9H290z"
   id="path1553" />
		</g>
	</g>
</g>
<text
   class="st2 st3"
   id="text9981"
   style="font-style:normal;font-variant:normal;font-weight:normal;font-stretch:normal;font-size:97.3873px;font-family:'Clash Display';-inkscape-font-specification:'Clash Display';letter-spacing:-2.41665px;fill:#2f68a6;fill-opacity:1;stroke-width:0.171023"
   x="169.57613"
   y="389.77338"><tspan
     style="font-style:normal;font-variant:normal;font-weight:500;font-stretch:normal;font-size:97.3873px;font-family:'Clash Display';-inkscape-font-specification:'Clash Display Medium';fill:#2f68a6;fill-opacity:1;stroke-width:0.171023"
     id="tspan9979">&quot; &quot; -&gt; #</tspan></text></svg>
