<?xml version="1.0" encoding="UTF-8" standalone="no"?>
<!-- Generator: Adobe Illustrator 26.5.0, SVG Export Plug-In . SVG Version: 6.00 Build 0)  -->

<svg
   version="1.1"
   id="Layer_1"
   x="0px"
   y="0px"
   viewBox="0 0 336.89998 389.19998"
   xml:space="preserve"
   sodipodi:docname="logo.svg"
   inkscape:version="1.1.2 (0a00cf5339, 2022-02-04)"
   width="89.138123mm"
   height="102.97583mm"
   xmlns:inkscape="http://www.inkscape.org/namespaces/inkscape"
   xmlns:sodipodi="http://sodipodi.sourceforge.net/DTD/sodipodi-0.dtd"
   xmlns="http://www.w3.org/2000/svg"
   xmlns:svg="http://www.w3.org/2000/svg"><defs
   id="defs1564"><clipPath
   clipPathUnits="userSpaceOnUse"
   id="clipPath34176"><path
     d="M 0,792 H 612 V 0 H 0 Z"
     id="path34174" /></clipPath><clipPath
   clipPathUnits="userSpaceOnUse"
   id="clipPath34210"><path
     d="m 459.52,23.96 h 27.16 v 27.16 h -27.16 z"
     id="path34208" /></clipPath><clipPath
   clipPathUnits="userSpaceOnUse"
   id="clipPath34218"><path
     d="M -32768,32767 H 32767 V -32768 H -32768 Z"
     id="path34216" /></clipPath><clipPath
   clipPathUnits="userSpaceOnUse"
   id="clipPath34236"><path
     d="M 0,720.36 H 612 V 792 H 0 Z"
     id="path34234" /></clipPath><clipPath
   clipPathUnits="userSpaceOnUse"
   id="clipPath56868"><path
     d="M 0,0 H 612 V 792 H 0 Z"
     id="path56866" /></clipPath><clipPath
   clipPathUnits="userSpaceOnUse"
   id="clipPath56880"><path
     d="M 36.78,402.988 H 271.484 V 674 H 36.78 Z"
     id="path56878" /></clipPath><linearGradient
   x1="0"
   y1="0"
   x2="1"
   y2="0"
   gradientUnits="userSpaceOnUse"
   gradientTransform="matrix(234.70403,0,0,-234.70403,36.780701,538.49369)"
   spreadMethod="pad"
   id="linearGradient59858"><stop
     style="stop-opacity:1;stop-color:#151e27"
     offset="0"
     id="stop59854" /><stop
     style="stop-opacity:1;stop-color:#2f68a6"
     offset="1"
     id="stop59856" /></linearGradient><clipPath
   clipPathUnits="userSpaceOnUse"
   id="clipPath59868"><path
     d="M 36.78,402.988 H 271.484 V 674 H 36.78 Z"
     id="path59866" /></clipPath><linearGradient
   x1="0"
   y1="0"
   x2="1"
   y2="0"
   gradientUnits="userSpaceOnUse"
   gradientTransform="matrix(0,-61.776633,-61.776633,0,117.42864,609.96105)"
   spreadMethod="pad"
   id="linearGradient59892"><stop
     style="stop-opacity:1;stop-color:#d4e623"
     offset="0"
     id="stop59884" /><stop
     style="stop-opacity:1;stop-color:#d4e623"
     offset="0.00000129"
     id="stop59886" /><stop
     style="stop-opacity:1;stop-color:#a9d12f"
     offset="0.999999"
     id="stop59888" /><stop
     style="stop-opacity:1;stop-color:#a9d12f"
     offset="1"
     id="stop59890" /></linearGradient><linearGradient
   x1="0"
   y1="0"
   x2="1"
   y2="0"
   gradientUnits="userSpaceOnUse"
   gradientTransform="matrix(0,-61.776633,-61.776633,0,117.42864,609.96105)"
   spreadMethod="pad"
   id="linearGradient59916"><stop
     style="stop-opacity:1;stop-color:#c4e124"
     offset="0"
     id="stop59908" /><stop
     style="stop-opacity:1;stop-color:#c4e124"
     offset="0.00000129"
     id="stop59910" /><stop
     style="stop-opacity:1;stop-color:#99cd30"
     offset="0.999999"
     id="stop59912" /><stop
     style="stop-opacity:1;stop-color:#99cd30"
     offset="1"
     id="stop59914" /></linearGradient><clipPath
   clipPathUnits="userSpaceOnUse"
   id="clipPath59926"><path
     d="M 36.78,402.988 H 271.484 V 674 H 36.78 Z"
     id="path59924" /></clipPath><linearGradient
   x1="0"
   y1="0"
   x2="1"
   y2="0"
   gradientUnits="userSpaceOnUse"
   gradientTransform="matrix(0,-61.776633,-61.776633,0,117.42864,609.96105)"
   spreadMethod="pad"
   id="linearGradient59982"><stop
     style="stop-opacity:1;stop-color:#eff5a7"
     offset="0"
     id="stop59974" /><stop
     style="stop-opacity:1;stop-color:#eff5a7"
     offset="0.00000129"
     id="stop59976" /><stop
     style="stop-opacity:1;stop-color:#deeda7"
     offset="0.999999"
     id="stop59978" /><stop
     style="stop-opacity:1;stop-color:#deeda7"
     offset="1"
     id="stop59980" /></linearGradient><clipPath
   clipPathUnits="userSpaceOnUse"
   id="clipPath59992"><path
     d="M 36.78,402.988 H 271.484 V 674 H 36.78 Z"
     id="path59990" /></clipPath><linearGradient
   x1="0"
   y1="0"
   x2="1"
   y2="0"
   gradientUnits="userSpaceOnUse"
   gradientTransform="matrix(0,-61.776633,-61.776633,0,117.42864,609.96105)"
   spreadMethod="pad"
   id="linearGradient60066"><stop
     style="stop-opacity:1;stop-color:#ecf498"
     offset="0"
     id="stop60058" /><stop
     style="stop-opacity:1;stop-color:#ecf498"
     offset="0.00000129"
     id="stop60060" /><stop
     style="stop-opacity:1;stop-color:#d8e999"
     offset="0.999999"
     id="stop60062" /><stop
     style="stop-opacity:1;stop-color:#d8e999"
     offset="1"
     id="stop60064" /></linearGradient><clipPath
   clipPathUnits="userSpaceOnUse"
   id="clipPath60076"><path
     d="m 124.772,549.341 h 0.005 z m -0.002,0 h 0.002 z"
     id="path60074" /></clipPath><linearGradient
   x1="0"
   y1="0"
   x2="1"
   y2="0"
   gradientUnits="userSpaceOnUse"
   gradientTransform="matrix(0,-61.776633,-61.776633,0,117.42864,609.96105)"
   spreadMethod="pad"
   id="linearGradient60098"><stop
     style="stop-opacity:1;stop-color:#e4f198"
     offset="0"
     id="stop60090" /><stop
     style="stop-opacity:1;stop-color:#e4f198"
     offset="0.00000129"
     id="stop60092" /><stop
     style="stop-opacity:1;stop-color:#d1e798"
     offset="0.999999"
     id="stop60094" /><stop
     style="stop-opacity:1;stop-color:#d1e798"
     offset="1"
     id="stop60096" /></linearGradient><clipPath
   clipPathUnits="userSpaceOnUse"
   id="clipPath60156"><path
     d="M 36.78,402.988 H 271.484 V 674 H 36.78 Z"
     id="path60154" /></clipPath><clipPath
   clipPathUnits="userSpaceOnUse"
   id="clipPath60288"><path
     d="M 36.78,402.988 H 271.484 V 674 H 36.78 Z"
     id="path60286" /></clipPath><clipPath
   clipPathUnits="userSpaceOnUse"
   id="clipPath60410"><path
     d="M 36.78,402.988 H 271.484 V 674 H 36.78 Z"
     id="path60408" /></clipPath><clipPath
   clipPathUnits="userSpaceOnUse"
   id="clipPath60498"><path
     d="M 36.78,402.988 H 271.484 V 674 H 36.78 Z"
     id="path60496" /></clipPath><linearGradient
   x1="0"
   y1="0"
   x2="1"
   y2="0"
   gradientUnits="userSpaceOnUse"
   gradientTransform="matrix(0,-61.776633,-61.776633,0,117.42864,609.96105)"
   spreadMethod="pad"
   id="linearGradient60558"><stop
     style="stop-opacity:1;stop-color:#f7fad7"
     offset="0"
     id="stop60550" /><stop
     style="stop-opacity:1;stop-color:#f7fad7"
     offset="0.00000129"
     id="stop60552" /><stop
     style="stop-opacity:1;stop-color:#f0f6d6"
     offset="0.999999"
     id="stop60554" /><stop
     style="stop-opacity:1;stop-color:#f0f6d6"
     offset="1"
     id="stop60556" /></linearGradient><linearGradient
   x1="0"
   y1="0"
   x2="1"
   y2="0"
   gradientUnits="userSpaceOnUse"
   gradientTransform="matrix(0,-61.776633,-61.776633,0,117.42864,609.96105)"
   spreadMethod="pad"
   id="linearGradient60582"><stop
     style="stop-opacity:1;stop-color:#f5fad6"
     offset="0"
     id="stop60574" /><stop
     style="stop-opacity:1;stop-color:#f5fad6"
     offset="0.00000129"
     id="stop60576" /><stop
     style="stop-opacity:1;stop-color:#edf5d5"
     offset="0.999999"
     id="stop60578" /><stop
     style="stop-opacity:1;stop-color:#edf5d5"
     offset="1"
     id="stop60580" /></linearGradient><clipPath
   clipPathUnits="userSpaceOnUse"
   id="clipPath60592"><path
     d="M 36.78,402.988 H 271.484 V 674 H 36.78 Z"
     id="path60590" /></clipPath><clipPath
   clipPathUnits="userSpaceOnUse"
   id="clipPath60702"><path
     d="M 36.78,402.988 H 271.484 V 674 H 36.78 Z"
     id="path60700" /></clipPath><clipPath
   clipPathUnits="userSpaceOnUse"
   id="clipPath60802"><path
     d="M 36.78,402.988 H 271.484 V 674 H 36.78 Z"
     id="path60800" /></clipPath><clipPath
   clipPathUnits="userSpaceOnUse"
   id="clipPath60904"><path
     d="M 36.78,402.988 H 271.484 V 674 H 36.78 Z"
     id="path60902" /></clipPath><clipPath
   clipPathUnits="userSpaceOnUse"
   id="clipPath61258"><path
     d="M 350.6,319.644 H 530.649 V 369.2 H 350.6 Z"
     id="path61256" /></clipPath>
	
	
</defs><sodipodi:namedview
   id="namedview1562"
   pagecolor="#ffffff"
   bordercolor="#666666"
   borderopacity="1.0"
   inkscape:pageshadow="2"
   inkscape:pageopacity="0.0"
   inkscape:pagecheckerboard="0"
   showgrid="false"
   inkscape:zoom="0.59709927"
   inkscape:cx="-134.81845"
   inkscape:cy="327.41624"
   inkscape:window-width="1920"
   inkscape:window-height="1016"
   inkscape:window-x="0"
   inkscape:window-y="0"
   inkscape:window-maximized="1"
   inkscape:current-layer="Layer_1"
   units="mm"
   fit-margin-top="0"
   fit-margin-left="0"
   fit-margin-right="0"
   fit-margin-bottom="0"
   showguides="true"
   inkscape:guide-bbox="true"
   inkscape:document-units="mm" />
<style
   type="text/css"
   id="style2">
	.st0{fill:#18BED2;}
	.st1{fill:none;}
	.st2{font-family:'ClashDisplay-Medium';}
	.st3{font-size:89px;}
	.st4{fill:url(#SVGID_1_);}
	.st5{fill-rule:evenodd;clip-rule:evenodd;fill:#92ABA6;}
	.st6{opacity:0.91;fill-rule:evenodd;clip-rule:evenodd;fill:url(#SVGID_00000044169153931771760620000012331813040940204451_);}
	.st7{fill:#51B96F;stroke:#FFFFFF;stroke-width:0.7451;stroke-miterlimit:3.8134;}
	.st8{fill-rule:evenodd;clip-rule:evenodd;fill:#86A8D7;}
	.st9{fill:#628BC8;stroke:#FFFFFF;stroke-width:0.7451;stroke-miterlimit:3.8134;}
	.st10{fill-rule:evenodd;clip-rule:evenodd;fill:#FFFFFF;fill-opacity:0.6145;}
	.st11{fill-rule:evenodd;clip-rule:evenodd;fill:#FFFFFF;fill-opacity:0.5502;}
	.st12{fill-rule:evenodd;clip-rule:evenodd;}
</style>



<linearGradient
   id="SVGID_1_"
   gradientUnits="userSpaceOnUse"
   x1="133.05859"
   y1="392.0741"
   x2="470.04819"
   y2="392.0741"
   gradientTransform="translate(-133.1,-197.5)">
	<stop
   offset="0"
   style="stop-color:#0B1E2C"
   id="stop1488" />
	<stop
   offset="1"
   style="stop-color:#0D6C9F"
   id="stop1490" />
</linearGradient>



<g
   id="g130489"><path
     class="st4"
     d="M 168.5,4.4999999e-7 0,97.300001 V 291.9 l 168.5,97.3 168.4,-97.3 V 97.300001 Z"
     id="path112415"
     style="fill:#161e26;fill-opacity:1"
     sodipodi:nodetypes="ccccccc" /><g
     id="g2768"
     style="fill:#ece7df;fill-opacity:1"><path
       d="m 31.53206,272.61511 v -11.84938 c 0,-5.20216 2.36024,-7.89958 7.61058,-7.89958 4.96132,0 6.98439,2.26391 6.98439,6.74355 v 13.00541 h 5.20216 v -14.40229 c 0,-5.53934 -3.27544,-10.01899 -9.92265,-10.01899 -6.06919,0 -9.24829,3.85346 -9.97082,7.89959 h -0.33717 v -7.4179 h -4.76866 v 23.93959 z"
       style="font-weight:500;font-size:48.1682px;font-family:'Clash Display';-inkscape-font-specification:'Clash Display Medium';fill:#ece7df;fill-opacity:1;stroke-width:0.0845887"
       id="path1092" /><path
       d="m 65.92414,273.09679 c 6.16553,0 9.34464,-3.85345 10.11533,-7.89958 h 0.28901 v 7.4179 h 4.76865 v -23.93959 h -5.154 v 11.84937 c 0,5.20217 -2.45658,7.89959 -7.75508,7.89959 -5.05766,0 -7.12889,-2.26391 -7.12889,-6.74355 v -13.00541 h -5.154 v 14.40229 c 0,5.53934 3.27544,10.01898 10.01898,10.01898 z"
       style="font-weight:500;font-size:48.1682px;font-family:'Clash Display';-inkscape-font-specification:'Clash Display Medium';fill:#ece7df;fill-opacity:1;stroke-width:0.0845887"
       id="path1094" /><path
       d="m 91.01972,272.61511 v -11.84938 c 0,-5.2985 1.78223,-7.89958 6.93622,-7.89958 4.62415,0 6.45454,2.02306 6.45454,6.74355 v 13.00541 h 5.154 v -11.84938 c 0,-5.2985 1.83039,-7.89958 6.93622,-7.89958 4.62415,0 6.50271,2.02306 6.50271,6.74355 v 13.00541 h 5.154 v -14.40229 c 0,-5.78018 -3.13094,-10.01899 -9.34463,-10.01899 -6.0692,0 -8.76662,3.80529 -9.3928,7.89959 h -0.28901 c -0.67436,-4.57598 -3.61262,-7.89959 -9.05562,-7.89959 -5.97286,0 -8.57394,3.70896 -9.20013,7.70692 h -0.28901 v -7.22523 h -4.76865 v 23.93959 z"
       style="font-weight:500;font-size:48.1682px;font-family:'Clash Display';-inkscape-font-specification:'Clash Display Medium';fill:#ece7df;fill-opacity:1;stroke-width:0.0845887"
       id="path1096" /><path
       d="m 137.59837,272.61511 v -6.88805 h 0.33718 c 1.01153,4.76865 4.52781,7.36973 9.97082,7.36973 7.61057,0 11.70487,-5.05766 11.70487,-12.42739 0,-7.46607 -4.04613,-12.47557 -11.41586,-12.47557 -5.73202,0 -8.91112,2.93826 -9.87449,6.98439 h -0.28901 v -14.8358 h -5.20216 v 32.27269 z m 0.43351,-11.70487 v -0.38535 c 0,-5.10583 2.93827,-7.61057 8.3331,-7.61057 5.10583,0 8.04409,1.97489 8.04409,7.75508 0,5.73201 -2.89009,7.65874 -8.14042,7.65874 -5.154,0 -8.23677,-2.40841 -8.23677,-7.4179 z"
       style="font-weight:500;font-size:48.1682px;font-family:'Clash Display';-inkscape-font-specification:'Clash Display Medium';fill:#ece7df;fill-opacity:1;stroke-width:0.0845887"
       id="path1098" /><path
       d="m 175.26584,273.09679 c 7.12889,0 12.13838,-3.51627 12.13838,-8.6221 v -0.43352 h -5.20216 v 0.38535 c 0,2.84192 -2.07124,4.47964 -7.08073,4.47964 -5.53934,0 -7.80325,-2.45658 -7.99592,-7.08072 h 20.32698 c 0.1445,-0.72253 0.19267,-1.39688 0.19267,-2.26391 0,-7.2734 -5.05766,-11.3677 -12.47556,-11.3677 -7.80325,0 -12.90908,5.0095 -12.90908,12.47557 0,7.99592 5.154,12.42739 13.00542,12.42739 z m -0.19268,-20.80866 c 5.10583,0 7.65875,2.1194 7.65875,6.55088 v 0.0963 h -15.55833 c 0.28901,-4.28697 2.60108,-6.64721 7.89958,-6.64721 z"
       style="font-weight:500;font-size:48.1682px;font-family:'Clash Display';-inkscape-font-specification:'Clash Display Medium';fill:#ece7df;fill-opacity:1;stroke-width:0.0845887"
       id="path1100" /><path
       d="m 196.74883,272.61511 v -13.43893 c 0,-4.28697 1.68588,-6.55087 5.78018,-6.55087 3.56445,0 5.00949,1.58955 5.00949,5.00949 v 2.1194 h 5.154 v -3.13093 c 0,-4.52781 -2.36024,-8.42944 -7.80325,-8.42944 -4.91315,0 -7.51424,3.08277 -8.23676,6.93623 h -0.33718 v -6.45454 h -4.76865 v 23.93959 z"
       style="font-weight:500;font-size:48.1682px;font-family:'Clash Display';-inkscape-font-specification:'Clash Display Medium';fill:#ece7df;fill-opacity:1;stroke-width:0.0845887"
       id="path1102" /><path
       d="m 221.17009,245.88176 v -5.53934 h -5.20216 v 5.53934 z m 0,26.73335 v -23.93959 h -5.20216 v 23.93959 z"
       style="font-weight:500;font-size:48.1682px;font-family:'Clash Display';-inkscape-font-specification:'Clash Display Medium';fill:#ece7df;fill-opacity:1;stroke-width:0.0845887"
       id="path1104" /><path
       d="m 249.49291,272.61511 v -4.57598 h -13.7761 l -4.43148,0.24084 v -0.38534 l 4.43148,-3.27544 13.05358,-11.46403 v -4.47964 h -23.36158 v 4.57598 h 11.46403 l 5.05767,-0.19268 v 0.38535 l -5.05767,3.80529 -12.18655,10.88601 v 4.47964 z"
       style="font-weight:500;font-size:48.1682px;font-family:'Clash Display';-inkscape-font-specification:'Clash Display Medium';fill:#ece7df;fill-opacity:1;stroke-width:0.0845887"
       id="path1106" /><path
       d="m 265.05119,273.09679 c 7.12889,0 12.13839,-3.51627 12.13839,-8.6221 v -0.43352 h -5.20217 v 0.38535 c 0,2.84192 -2.07123,4.47964 -7.08072,4.47964 -5.53935,0 -7.80325,-2.45658 -7.99593,-7.08072 h 20.32698 c 0.14451,-0.72253 0.19268,-1.39688 0.19268,-2.26391 0,-7.2734 -5.05766,-11.3677 -12.47557,-11.3677 -7.80325,0 -12.90907,5.0095 -12.90907,12.47557 0,7.99592 5.15399,12.42739 13.00541,12.42739 z m -0.19267,-20.80866 c 5.10583,0 7.65874,2.1194 7.65874,6.55088 v 0.0963 h -15.55833 c 0.28901,-4.28697 2.60108,-6.64721 7.89959,-6.64721 z"
       style="font-weight:500;font-size:48.1682px;font-family:'Clash Display';-inkscape-font-specification:'Clash Display Medium';fill:#ece7df;fill-opacity:1;stroke-width:0.0845887"
       id="path1108" /><path
       d="m 286.53418,272.61511 v -12.52373 h 5.92469 c 4.04613,0 5.53934,1.0597 6.98439,3.61262 l 5.154,8.91111 h 5.97285 l -5.39483,-9.34463 c -1.15604,-2.02306 -2.31208,-3.46811 -4.81683,-4.14246 v -0.33718 c 6.0692,-0.33718 9.58548,-3.61262 9.58548,-8.95929 0,-6.02102 -4.52781,-9.48913 -11.84938,-9.48913 h -16.76253 v 32.27269 z m 0,-27.60038 h 11.5122 c 4.33514,0 6.50271,1.58955 6.50271,5.53935 0,4.04612 -2.16757,5.53934 -6.50271,5.53934 h -11.5122 z"
       style="font-weight:500;font-size:48.1682px;font-family:'Clash Display';-inkscape-font-specification:'Clash Display Medium';fill:#ece7df;fill-opacity:1;stroke-width:0.0845887"
       id="path1110" /></g><path
     class="st4"
     d="m 168.5,5.8 163.4,94.4 V 289 L 168.4,383.4 4.9,289 V 100.2 L 168.5,5.8 M 168.5,0 0,97.3 v 194.6 l 168.5,97.3 168.4,-97.3 V 97.3 Z"
     id="path1493"
     style="fill:url(#SVGID_1_)" /><g
     id="g1533"
     transform="translate(-133.1,-197.5)">
		<path
   d="m 248.7,515.7 v -17.1 h 14.4 v 3.4 h -10.6 v 3.3 h 10.2 v 3.4 h -10.2 v 3.4 h 10.6 v 3.4 h -14.4 z"
   id="path1517" />
		<path
   d="M 264.9,520.1 V 503 h 3.5 v 3.5 h 0.3 c 0.5,-2.4 2.1,-3.7 5.1,-3.7 3.9,0 6.1,2.6 6.1,6.6 0,4 -2.1,6.6 -6,6.6 -3,0 -4.6,-1.5 -5,-3.7 h -0.2 v 7.8 z m 7.5,-7.6 c 2.4,0 3.6,-0.8 3.6,-3.1 0,-2.3 -1.1,-3.1 -3.6,-3.1 -2.5,0 -3.7,0.8 -3.7,3.1 v 0.2 c 0,2.1 1.3,2.9 3.7,2.9 z"
   id="path1519" />
		<path
   d="m 281.4,501.7 v -3 h 3.8 v 3 z m 0,14 V 503 h 3.8 v 12.8 h -3.8 z"
   id="path1521" />
		<path
   d="m 291.6,515.7 -5.8,-12.8 h 4.3 l 3.8,9 h 0.3 l 3.8,-9 h 4.2 l -5.8,12.8 z"
   id="path1523" />
		<path
   d="m 301.7,509.4 c 0,-4.1 2.9,-6.6 7.1,-6.6 4.2,0 7,2.2 7,6.2 0,0.5 -0.1,0.8 -0.1,1.2 h -10.4 c 0.1,2 1,2.8 3.5,2.8 2.3,0 3.1,-0.6 3.1,-1.7 V 511 h 3.8 v 0.3 c 0,2.8 -2.7,4.7 -6.8,4.7 -4.3,0 -7.2,-2.1 -7.2,-6.6 z m 3.6,-1.3 h 6.8 c -0.1,-1.7 -1.1,-2.4 -3.4,-2.4 -2.3,0 -3.3,0.8 -3.4,2.4 z"
   id="path1525" />
		<path
   d="M 317.2,515.7 V 503 h 3.5 v 3.4 h 0.2 c 0.4,-2.1 1.7,-3.6 4.3,-3.6 2.9,0 4,2 4,4.5 v 2.1 h -3.8 V 508 c 0,-1.4 -0.6,-2 -2.1,-2 -1.7,0 -2.3,0.8 -2.3,2.4 v 7.4 h -3.8 z"
   id="path1527" />
		<path
   d="m 330.1,511.4 v 0 l 3.8,-0.1 v 0.2 c 0,1.1 0.7,1.5 2.9,1.5 2,0 2.5,-0.3 2.5,-1.1 0,-0.7 -0.4,-0.9 -1.9,-1.1 l -3.6,-0.4 c -2.5,-0.3 -4,-1.4 -4,-3.6 0,-2.2 1.9,-4 6.3,-4 4.2,0 6.5,1.6 6.5,4.7 v 0.1 h -3.8 v -0.2 c 0,-1 -0.5,-1.6 -2.9,-1.6 -1.9,0 -2.4,0.3 -2.4,1.1 0,0.7 0.4,0.9 2,1.1 l 2.7,0.3 c 3.4,0.4 4.7,1.5 4.7,3.6 0,2.4 -2.4,4 -6.3,4 -4.1,0.1 -6.5,-1.6 -6.5,-4.5 z"
   id="path1529" />
		<path
   d="m 343.9,509.4 c 0,-4.1 2.9,-6.6 7.1,-6.6 4.2,0 7,2.2 7,6.2 0,0.5 -0.1,0.8 -0.1,1.2 h -10.4 c 0.1,2 1,2.8 3.5,2.8 2.3,0 3.1,-0.6 3.1,-1.7 V 511 h 3.8 v 0.3 c 0,2.8 -2.7,4.7 -6.8,4.7 -4.3,0 -7.2,-2.1 -7.2,-6.6 z m 3.6,-1.3 h 6.8 c -0.1,-1.7 -1.1,-2.4 -3.4,-2.4 -2.3,0 -3.2,0.8 -3.4,2.4 z"
   id="path1531" />
	</g><g
     id="g1557"
     transform="translate(-133.1,-197.5)">
		<path
   class="st12"
   d="m 336,528.3 c -1.1,0 -2,0.9 -2,2 0,1.1 0.8,2 2,2 1.1,0 2,-0.8 2,-2 -0.1,-1.1 -0.9,-2 -2,-2 m 7.3,-5.2 c -3,0 -5.2,1.9 -5.2,4.6 0,2.7 2.1,4.6 5.2,4.6 3.1,0 5.2,-1.9 5.2,-4.6 0,-2.8 -2.1,-4.6 -5.2,-4.6 m 0,8.9 c -1,0 -1.3,-0.9 -1.3,-4.3 0,-3.6 0.3,-4.3 1.3,-4.3 1,0 1.3,0.8 1.3,4.3 0,3.4 -0.3,4.3 -1.3,4.3 m 12,-9.1 c -1.1,0 -2.3,0.9 -2.5,2.2 l -3.5,-2.2 v 9.3 h 3.6 v -6.6 c 0,-1.4 1.6,-1.4 2.4,-1.4 z m 6.2,6.8 h -5.3 l 1.5,-1 c 0.6,0.2 0.9,0.2 1.7,0.2 2.9,0 4.3,-1 4.3,-2.9 0,-1.1 -0.6,-2 -1.7,-2.6 h 2.2 v -1.3 l -2.6,1.2 c -0.6,-0.2 -1.3,-0.3 -2.1,-0.3 -2.9,0 -4.2,1.2 -4.2,2.9 0,1.2 0.7,2.1 1.8,2.6 l -1.9,1.2 0.9,3.1 h 8.4 c 0,-0.1 0,-0.1 0.1,-0.2 v -1.1 c -0.4,-1.1 -1.3,-1.8 -3.1,-1.8 m -2.1,-6.5 c 1,0 1.2,1.1 1.2,2.8 0,1.5 -0.2,2.7 -1.2,2.7 -1,0 -1.2,-1.2 -1.2,-2.7 0,-1.7 0.2,-2.8 1.2,-2.8 M 314.2,523 c -0.9,0 -2.3,0.2 -3.5,0.6 v 1.3 c 0.8,-0.8 2,-1.7 3,-1.7 1,0 1.1,0.9 1.1,1.6 v 1.9 c -3.6,0 -5.2,1.2 -5.2,3 0,1.6 1.1,2.3 2.6,2.3 1.6,0 2.6,-1 2.7,-2 l 3.4,2.1 v -5.9 c 0.2,-2.5 -1.2,-3.2 -4.1,-3.2 m 0.7,6.9 c 0,0.4 -0.3,0.9 -0.9,0.9 -0.7,0 -1,-0.6 -1,-1.6 0,-1 0.5,-2 1.9,-2.3 z m 10,-7.2 h -1.4 v -2.4 l -3.5,2.4 h -1.3 v 0.7 h 1.3 v 8.8 h 3.5 v -8.8 h 1.4 z m -19.3,-3.3 v 5.3 c -0.3,-1.1 -1.3,-1.8 -2.6,-1.8 -2.3,0 -3.8,1.9 -3.8,4.7 0,2.7 1.3,4.5 3.7,4.5 1.6,0 2.5,-0.8 2.7,-2 l 3.6,2.1 v -10.6 z m 0,10.1 c 0,0.8 -0.4,1.4 -1.1,1.4 -1.3,0 -1.4,-1.5 -1.4,-3.4 0,-2.1 0.2,-3.3 1.4,-3.3 0.7,0 1.1,0.6 1.1,1.4 z m 23.2,-6.5 c -0.9,0 -2.3,0.2 -3.5,0.6 v 1.3 c 0.8,-0.8 2,-1.7 3,-1.7 1,0 1.1,0.9 1.1,1.6 v 1.9 c -3.6,0 -5.2,1.2 -5.2,3 0,1.6 1.1,2.3 2.6,2.3 1.6,0 2.6,-1 2.7,-2 l 3.4,2.1 v -5.9 c 0.2,-2.5 -1.3,-3.2 -4.1,-3.2 m 0.7,6.9 c 0,0.4 -0.3,0.9 -0.9,0.9 -0.7,0 -1,-0.6 -1,-1.6 0,-1 0.5,-2 1.9,-2.3 z"
   id="path1535" />
		<g
   id="g1555">
			<path
   d="m 240.4,532.8 v -6.3 h 0.4 v 1.3 h 0.1 c 0.2,-0.8 1,-1.4 2.1,-1.4 1.5,0 2.3,1 2.3,2.4 0,1.4 -0.8,2.4 -2.3,2.4 -1,0 -1.8,-0.6 -2,-1.5 v 3 h -0.6 z m 2.4,-1.9 c 1.2,0 2,-0.5 2,-2 0,-1.5 -0.8,-2 -1.9,-2 -1.2,0 -2,0.8 -2,2 v 0.1 c -0.1,1.2 0.7,1.9 1.9,1.9 z"
   id="path1537" />
			<path
   d="m 245.8,528.9 c 0,-1.4 1,-2.4 2.5,-2.4 1.5,0 2.5,1 2.5,2.4 0,1.4 -1,2.4 -2.5,2.4 -1.5,0 -2.5,-1 -2.5,-2.4 z m 4.6,0 c 0,-1.2 -0.7,-2 -2.1,-2 -1.4,0 -2.1,0.8 -2.1,2 0,1.2 0.7,2 2.1,2 1.4,0 2.1,-0.8 2.1,-2 z"
   id="path1539" />
			<path
   d="m 252.9,531.2 -1.6,-4.6 h 0.4 l 1.1,3.4 0.2,0.8 v 0 l 0.3,-0.9 1.4,-3.4 h 0.5 l 1.4,3.4 0.3,0.8 v 0 l 0.2,-0.8 1.1,-3.4 h 0.4 l -1.6,4.6 h -0.5 l -1.4,-3.3 -0.4,-0.9 v 0 l -0.4,0.9 -1.4,3.3 v 0 z"
   id="path1541" />
			<path
   d="m 259.4,528.9 c 0,-1.4 0.9,-2.4 2.4,-2.4 1.3,0 2.3,0.8 2.3,2.1 0,0.2 0,0.3 0,0.4 h -4.2 c 0,1.2 0.6,1.9 2,1.9 1.2,0 1.8,-0.5 1.8,-1.2 v -0.1 h 0.4 v 0.1 c 0,1 -1,1.6 -2.2,1.6 -1.5,0 -2.5,-1 -2.5,-2.4 z m 0.4,-0.2 h 3.9 c 0,-0.1 0,-0.1 0,-0.2 0,-1.1 -0.7,-1.7 -1.9,-1.7 -1.3,0 -1.9,0.8 -2,1.9 z"
   id="path1543" />
			<path
   d="m 265.1,531.2 v -4.6 h 0.4 v 1.3 0 c 0.1,-0.7 0.7,-1.4 1.7,-1.4 1.1,0 1.6,0.8 1.6,1.7 v 0.4 h -0.4 v -0.3 c 0,-0.9 -0.4,-1.3 -1.3,-1.3 -1.1,0 -1.5,0.7 -1.5,1.9 v 2.5 h -0.5 z"
   id="path1545" />
			<path
   d="m 269.3,528.9 c 0,-1.4 0.9,-2.4 2.4,-2.4 1.3,0 2.3,0.8 2.3,2.1 0,0.2 0,0.3 0,0.4 h -4.2 c 0,1.2 0.6,1.9 2,1.9 1.2,0 1.8,-0.5 1.8,-1.2 v -0.1 h 0.4 v 0.1 c 0,1 -1,1.6 -2.2,1.6 -1.6,0 -2.5,-1 -2.5,-2.4 z m 0.4,-0.2 h 3.9 c 0,-0.1 0,-0.1 0,-0.2 0,-1.1 -0.7,-1.7 -1.9,-1.7 -1.3,0 -1.9,0.8 -2,1.9 z"
   id="path1547" />
			<path
   d="m 274.6,528.9 c 0,-1.4 0.8,-2.4 2.3,-2.4 1.1,0 1.8,0.6 2,1.4 v 0 -3 h 0.4 v 6.3 H 279 v -1.4 0 c -0.2,0.9 -1,1.5 -2.1,1.5 -1.5,0 -2.3,-1 -2.3,-2.4 z m 2.4,2 c 1.2,0 2,-0.7 2,-1.9 v -0.1 c 0,-1.3 -0.8,-2 -2,-2 -1.1,0 -1.9,0.5 -1.9,2 -0.1,1.5 0.7,2 1.9,2 z"
   id="path1549" />
			<path
   d="m 284.3,531.2 v -6.3 h 0.4 v 3 0 c 0.2,-0.8 0.9,-1.4 2.1,-1.4 1.5,0 2.3,1 2.3,2.4 0,1.4 -0.8,2.4 -2.3,2.4 -1,0 -1.8,-0.6 -2,-1.5 v 0 1.4 z m 2.4,-0.3 c 1.2,0 2,-0.5 2,-2 0,-1.5 -0.8,-2 -1.9,-2 -1.3,0 -2,0.8 -2,2 v 0.1 c 0,1.2 0.7,1.9 1.9,1.9 z"
   id="path1551" />
			<path
   d="m 290,532.8 v -0.4 h 0.6 c 0.5,0 0.7,-0.2 0.9,-0.6 l 0.3,-0.7 -2.3,-4.6 h 0.5 l 1.5,3 0.6,1.2 v 0 l 0.5,-1.2 1.4,-3 h 0.4 l -2.6,5.4 c -0.3,0.6 -0.7,0.9 -1.3,0.9 z"
   id="path1553" />
		</g>
	</g><g
     id="g109883"
     style="fill:#ece7df;fill-opacity:1"><g
       id="g3709"
       transform="translate(-6.5871224,-6.480945)"
       style="fill:#ece7df;fill-opacity:1"><path
         d="m 177.51813,164.22987 v -4.54149 H 156.9827 v 4.54149 z"
         style="font-weight:500;font-size:97.3873px;font-family:'Clash Display';-inkscape-font-specification:'Clash Display Medium';letter-spacing:-2.41665px;fill:#ece7df;fill-opacity:1;stroke-width:0.0991506"
         id="path1135" /><path
         d="m 194.98685,165.06906 v -6.21987 l -20.53543,-7.84888 v 5.03513 l 15.69776,5.72623 v 0.39491 l -15.69776,5.72623 v 5.03512 z"
         style="font-weight:500;font-size:97.3873px;font-family:'Clash Display';-inkscape-font-specification:'Clash Display Medium';letter-spacing:-2.41665px;fill:#ece7df;fill-opacity:1;stroke-width:0.0866887"
         id="path1137" /></g><path
       d="m 217.53331,205.26624 8.4714,-22.14454 h 27.04903 l -8.62003,22.14454 h 15.75383 l 8.62003,-22.14454 h 30.17009 v -14.26763 h -24.52248 l 9.36313,-24.6711 h 26.7518 v -14.26764 h -20.95558 l 9.36313,-24.22522 h -15.75382 l -9.36312,24.22522 h -27.04906 l 9.36313,-24.22522 h -15.75386 l -9.36312,24.22522 h -29.27834 v 14.26764 h 23.63076 l -9.36314,24.6711 h -25.71147 v 14.26763 h 19.91524 l -8.47139,22.14454 z m 23.18488,-61.38053 h 28.08938 l -9.66037,25.2656 h -28.08939 z"
       style="font-weight:500;font-size:97.3873px;font-family:'Clash Display';-inkscape-font-specification:'Clash Display Medium';letter-spacing:-2.41665px;fill:#ece7df;fill-opacity:1;stroke-width:0.260995"
       id="path1139" /><g
       id="g109864"
       style="fill:#ece7df;fill-opacity:1"><g
         id="g102316"
         transform="translate(66.961347,-292.10719)"
         style="fill:#ece7df;fill-opacity:1"><g
           aria-label=","
           id="g102281"
           style="font-weight:500;font-size:398.206px;line-height:1.25;font-family:'Clash Display';-inkscape-font-specification:'Clash Display Medium';fill:#ece7df;fill-opacity:1;stroke-width:9.95516"
           transform="matrix(-0.58861318,0,0,-0.58861318,105.21911,717.80194)"><path
             d="m 214.71326,502.50218 c 16.72465,0 27.07801,-8.36233 27.07801,-25.88339 v -64.50937 h -35.04213 v 55.35063 h 15.53004 v 9.55695 c 0,7.1677 -2.78745,8.36232 -7.96412,8.36232 h -7.96412 v 17.12286 z"
             style="font-weight:normal;-inkscape-font-specification:'Clash Display';fill:#ece7df;fill-opacity:1"
             id="path102279" /></g><g
           aria-label=","
           id="g102285"
           style="font-weight:500;font-size:398.206px;line-height:1.25;font-family:'Clash Display';-inkscape-font-specification:'Clash Display Medium';fill:#ece7df;fill-opacity:1;stroke-width:9.95516"
           transform="matrix(-0.58861318,0,0,-0.58861318,129.84537,717.80194)"><path
             d="m 214.71326,502.50218 c 16.72465,0 27.07801,-8.36233 27.07801,-25.88339 v -64.50937 h -35.04213 v 55.35063 h 15.53004 v 9.55695 c 0,7.1677 -2.78745,8.36232 -7.96412,8.36232 h -7.96412 v 17.12286 z"
             style="font-weight:normal;-inkscape-font-specification:'Clash Display';fill:#ece7df;fill-opacity:1"
             id="path102283" /></g></g><g
         id="g102406"
         transform="rotate(180,52.219439,302.57212)"
         style="fill:#ece7df;fill-opacity:1"><g
           aria-label=","
           id="g102400"
           style="font-weight:500;font-size:398.206px;line-height:1.25;font-family:'Clash Display';-inkscape-font-specification:'Clash Display Medium';fill:#ece7df;fill-opacity:1;stroke-width:9.95516"
           transform="matrix(-0.58861318,0,0,-0.58861318,105.21911,717.80194)"><path
             d="m 214.71326,502.50218 c 16.72465,0 27.07801,-8.36233 27.07801,-25.88339 v -64.50937 h -35.04213 v 55.35063 h 15.53004 v 9.55695 c 0,7.1677 -2.78745,8.36232 -7.96412,8.36232 h -7.96412 v 17.12286 z"
             style="font-weight:normal;-inkscape-font-specification:'Clash Display';fill:#ece7df;fill-opacity:1"
             id="path102398" /></g><g
           aria-label=","
           id="g102404"
           style="font-weight:500;font-size:398.206px;line-height:1.25;font-family:'Clash Display';-inkscape-font-specification:'Clash Display Medium';fill:#ece7df;fill-opacity:1;stroke-width:9.95516"
           transform="matrix(-0.58861318,0,0,-0.58861318,129.84537,717.80194)"><path
             d="m 214.71326,502.50218 c 16.72465,0 27.07801,-8.36233 27.07801,-25.88339 v -64.50937 h -35.04213 v 55.35063 h 15.53004 v 9.55695 c 0,7.1677 -2.78745,8.36232 -7.96412,8.36232 h -7.96412 v 17.12286 z"
             style="font-weight:normal;-inkscape-font-specification:'Clash Display';fill:#ece7df;fill-opacity:1"
             id="path102402" /></g></g><g
         aria-label="w"
         id="text105854"
         style="font-weight:500;font-size:17.7205px;line-height:1.25;font-family:'Clash Display';-inkscape-font-specification:'Clash Display Medium';fill:#ece7df;stroke-width:0.294469;fill-opacity:1"><path
           d="M 88.198705,160.21326 H 87.31268 l -1.612565,-4.58961 -1.577125,4.58961 h -0.903745 l -1.488522,-6.66291 h -0.33669 q -0.478453,0 -0.478453,-0.37213 0,-0.35441 0.478453,-0.35441 h 1.966976 q 0.478453,0 0.478453,0.35441 0,0.37213 -0.478453,0.37213 h -0.939187 l 1.275876,5.67056 1.523963,-4.51873 h 0.903746 l 1.577124,4.51873 1.222715,-5.67056 h -0.886025 q -0.478454,0 -0.478454,-0.37213 0,-0.35441 0.478454,-0.35441 h 1.966976 q 0.478453,0 0.478453,0.35441 0,0.37213 -0.478453,0.37213 h -0.33669 z"
           style="font-weight:normal;font-family:FreeMono;-inkscape-font-specification:FreeMono;fill:#ece7df;fill-opacity:1"
           id="path112091" /></g></g></g></g></svg>
